External Loads File
version=1
nRows=62
nColumns=13
Range=5.000000e-03-10 seconds
endheader
time 	forceRightX 	forceRightY 	forceRightZ 	pointRightX 	pointRightY 	pointRightZ 	forceLeftX 	forceLeftY 	forceLeftZ 	pointLeftX 	pointLeftY 	pointLeftZ 		
2.505000 149.917399 1012.314033 -0.000000 0.247997 0.158093 -0.103143 -21.213860 -98.703302 -0.000000 0.138895 0.471812 -0.340278
2.510000 158.654930 992.066147 -0.000000 0.242460 0.155407 -0.103176 -24.712642 -93.022103 -0.000000 0.144970 0.474770 -0.340368
2.515000 165.989129 965.825890 -0.000000 0.236808 0.152916 -0.103193 -27.839452 -86.408137 -0.000000 0.150861 0.477484 -0.340402
2.520000 172.177428 933.600602 -0.000000 0.231130 0.150852 -0.103036 -30.677650 -78.804291 -0.000000 0.156873 0.479922 -0.340351
2.525000 176.835297 895.698533 -0.000000 0.225441 0.148992 -0.103077 -33.224780 -70.138225 -0.000000 0.162926 0.482069 -0.340400
2.530000 179.763145 852.629329 -0.000000 0.219781 0.147356 -0.103159 -35.468078 -60.352360 -0.000000 0.169044 0.483921 -0.340485
2.535000 181.532267 804.932377 -0.000000 0.214014 0.146029 -0.102662 -37.420983 -49.377518 -0.000000 0.175358 0.485465 -0.340498
2.540000 180.751721 753.694855 -0.000000 0.208207 0.144984 -0.102486 -38.945608 -37.228707 -0.000000 0.181413 0.486751 -0.340710
2.545000 178.196781 699.564194 -0.000000 0.202424 0.144084 -0.102332 -40.025662 -23.840727 -0.000000 0.187602 0.487666 -0.340905
2.550000 173.248315 643.509439 -0.000000 0.196664 0.143582 -0.102131 -40.570874 -9.313984 -0.000000 0.193584 0.488413 -0.341104
2.555000 166.018409 586.307803 -0.000000 0.190933 0.143329 -0.101978 -40.561424 6.152322 -0.000000 0.199292 0.488780 -0.341462
2.560000 156.605839 528.707102 -0.000000 0.185246 0.143320 -0.101743 -40.024369 22.314099 -0.000000 0.204603 0.488747 -0.341447
2.565000 146.448344 471.028711 -0.000000 0.179530 0.143587 -0.101510 -38.928752 39.139671 -0.000000 0.210200 0.488849 -0.341581
2.570000 135.190603 414.155442 -0.000000 0.173732 0.144217 -0.101075 -37.272084 56.652177 -0.000000 0.215578 0.488819 -0.341588
2.575000 123.228823 358.860639 -0.000000 0.168050 0.145262 -0.101154 -35.029823 75.089385 -0.000000 0.220755 0.488135 -0.341959
2.580000 111.551403 305.803431 -0.000000 0.162046 0.146655 -0.100988 -32.042514 94.848798 -0.000000 0.225740 0.487082 -0.342090
2.585000 100.540539 255.834420 -0.000000 0.155869 0.148390 -0.100797 -28.264727 116.305610 -0.000000 0.230458 0.485524 -0.342458
2.590000 90.869488 209.536115 -0.000000 0.149419 0.150554 -0.100688 -23.612437 139.811440 -0.000000 0.235076 0.483678 -0.342558
2.595000 82.798969 167.327406 -0.000000 0.142696 0.152989 -0.100500 -18.248505 165.517125 -0.000000 0.239353 0.481437 -0.342929
2.600000 76.672244 129.134929 -0.000000 0.135877 0.155992 -0.100408 -12.275750 193.344018 -0.000000 0.243643 0.478810 -0.343392
2.605000 72.351669 94.648665 -0.000000 0.128936 0.159272 -0.100476 -6.212474 222.907613 -0.000000 0.247633 0.475726 -0.343638
2.610000 69.743404 63.156077 -0.000000 0.121981 0.162860 -0.100536 -0.308174 253.629712 -0.000000 0.251684 0.472302 -0.344040
2.615000 68.466860 33.935360 -0.000000 0.115076 0.166935 -0.100663 5.007541 284.795384 -0.000000 0.255669 0.468643 -0.344583
2.620000 68.058797 6.345624 -0.000000 0.108387 0.171310 -0.100687 9.381481 315.651145 -0.000000 0.259581 0.464514 -0.345094
2.625000 67.960121 -20.037800 -0.000000 0.101832 0.175876 -0.100867 12.561264 345.474429 -0.000000 0.263446 0.460155 -0.345678
2.630000 67.488520 -45.376410 -0.000000 0.095634 0.180852 -0.100967 14.576151 373.637443 -0.000000 0.267297 0.455321 -0.346656
2.635000 65.930781 -69.427418 -0.000000 0.089868 0.186057 -0.101034 15.193595 399.670980 -0.000000 0.271189 0.450149 -0.347200
2.640000 62.792972 -91.561718 -0.000000 0.084660 0.191125 -0.101096 13.678341 423.267783 -0.000000 0.274938 0.444869 -0.347352
2.645000 57.724811 -111.116652 -0.000000 0.080086 0.196247 -0.101152 10.053543 444.199302 -0.000000 0.278684 0.439692 -0.347580
2.650000 50.627381 -127.524245 -0.000000 0.075979 0.201258 -0.101182 4.689320 462.333731 -0.000000 0.282356 0.434182 -0.347609
2.655000 41.679108 -140.494694 -0.000000 0.072198 0.206475 -0.101289 -1.768130 477.678833 -0.000000 0.285952 0.428309 -0.347690
2.660000 31.551790 -150.026458 -0.000000 0.068705 0.211789 -0.101281 -9.404494 490.402586 -0.000000 0.289459 0.422258 -0.347809
2.665000 20.888552 -156.487023 -0.000000 0.065353 0.217371 -0.101263 -17.758751 500.808585 -0.000000 0.292925 0.416098 -0.347877
2.670000 10.329576 -160.357995 -0.000000 0.062139 0.223231 -0.101335 -26.549936 509.298030 -0.000000 0.296209 0.409675 -0.348248
2.675000 0.378920 -162.078539 -0.000000 0.059095 0.229351 -0.101208 -35.605402 516.299314 -0.000000 0.299479 0.403096 -0.347883
2.680000 -8.519334 -161.975653 -0.000000 0.056331 0.235582 -0.101199 -45.145793 522.189002 -0.000000 0.302440 0.396316 -0.347865
2.685000 -16.215393 -160.265293 -0.000000 0.053700 0.242046 -0.101137 -54.839307 527.348282 -0.000000 0.305313 0.389642 -0.347843
2.690000 -22.794011 -157.059253 -0.000000 0.051498 0.248583 -0.101281 -63.775091 532.226627 -0.000000 0.308031 0.382308 -0.348100
2.695000 -27.970873 -152.503224 -0.000000 0.049538 0.255319 -0.101405 -72.488577 537.123280 -0.000000 0.310567 0.375052 -0.348169
2.700000 -31.739542 -146.757078 -0.000000 0.047792 0.262183 -0.101523 -80.937023 542.374934 -0.000000 0.312822 0.367847 -0.348270
2.705000 -34.260758 -139.988410 -0.000000 0.046400 0.269198 -0.101644 -88.708814 548.346097 -0.000000 0.314837 0.360503 -0.348166
2.710000 -35.694441 -132.386079 -0.000000 0.045200 0.276508 -0.101774 -95.390901 555.378076 -0.000000 0.316629 0.353053 -0.348231
2.715000 -36.038724 -124.187194 -0.000000 0.044143 0.283877 -0.102095 -101.193208 563.671308 -0.000000 0.318184 0.345416 -0.348801
2.720000 -35.280240 -115.626047 -0.000000 0.043445 0.291448 -0.102290 -106.528131 573.326505 -0.000000 0.319562 0.337922 -0.348721
2.725000 -33.626220 -106.848154 -0.000000 0.042834 0.299101 -0.102567 -110.893828 584.556409 -0.000000 0.320661 0.330228 -0.348469
2.730000 -31.082816 -98.042943 -0.000000 0.042713 0.306778 -0.102783 -114.919833 597.343109 -0.000000 0.321743 0.322569 -0.348205
2.735000 -27.864615 -89.333110 -0.000000 0.042814 0.314504 -0.102962 -118.246416 611.865664 -0.000000 0.322322 0.314774 -0.347959
2.740000 -24.053172 -80.880857 -0.000000 0.043206 0.322275 -0.103168 -121.367962 628.145178 -0.000000 0.322592 0.307092 -0.347789
2.745000 -19.808947 -72.813200 -0.000000 0.043892 0.329955 -0.103376 -124.273750 646.272447 -0.000000 0.322677 0.299371 -0.348017
2.750000 -15.306347 -65.251904 -0.000000 0.044972 0.337639 -0.103374 -126.766376 666.337023 -0.000000 0.322425 0.291647 -0.347950
2.755000 -10.698371 -58.330478 -0.000000 0.046301 0.345266 -0.103425 -129.073452 688.347780 -0.000000 0.321784 0.283974 -0.347791
2.760000 -6.219937 -52.154259 -0.000000 0.047911 0.352896 -0.103250 -130.985305 712.434507 -0.000000 0.320861 0.276304 -0.347632
2.765000 -2.095661 -46.794987 -0.000000 0.049952 0.360534 -0.103221 -132.381317 738.736188 -0.000000 0.319635 0.268660 -0.347422
2.770000 1.533709 -42.268528 -0.000000 0.052252 0.368040 -0.103162 -133.949373 767.230142 -0.000000 0.318092 0.261178 -0.347246
2.775000 4.464717 -38.522750 -0.000000 0.054848 0.375520 -0.103132 -134.869175 798.098911 -0.000000 0.316249 0.253672 -0.346985
2.780000 6.575207 -35.456319 -0.000000 0.057818 0.382934 -0.103042 -135.327296 831.251311 -0.000000 0.314072 0.246300 -0.346843
2.785000 7.754034 -32.942633 -0.000000 0.061094 0.390252 -0.102934 -134.897543 866.583066 -0.000000 0.311570 0.238953 -0.346669
2.790000 8.042185 -30.817585 -0.000000 0.063872 0.397256 -0.103671 -135.424705 903.508898 -0.000000 0.308701 0.231860 -0.346487
2.795000 7.296837 -28.967543 -0.000000 0.068486 0.404439 -0.103201 -131.257716 942.406995 -0.000000 0.305526 0.224785 -0.346280
2.800000 5.837144 -27.175022 -0.000000 0.072038 0.411249 -0.103667 -128.422152 981.750857 -0.000000 0.301994 0.217975 -0.346132
2.805000 3.700298 -25.323659 -0.000000 0.076488 0.417960 -0.103717 -122.443073 1021.343993 -0.000000 0.298229 0.211315 -0.345962
2.810000 1.070758 -23.293127 -0.000000 0.082035 0.424520 -0.103161 -112.100288 1060.315752 -0.000000 0.294064 0.204857 -0.345869
